<svg width="60" height="110" viewBox="0 0 60 110" fill="none" xmlns="http://www.w3.org/2000/svg">
<rect width="34" height="110" fill="#F5F5F5"/>
<path opacity="0.2" d="M43.75 78.25H11.25V86.375C11.25 86.806 11.4212 87.2193 11.726 87.524C12.0307 87.8288 12.444 88 12.875 88H16.9375C16.9375 86.7071 17.4511 85.4671 18.3654 84.5529C19.2796 83.6386 20.5196 83.125 21.8125 83.125C23.1054 83.125 24.3454 83.6386 25.2596 84.5529C26.1739 85.4671 26.6875 86.7071 26.6875 88H41.3125C41.3121 87.1441 41.5372 86.3033 41.965 85.562C42.3929 84.8207 43.0084 84.2052 43.7496 83.7774L43.75 78.25Z" fill="#0866B7"/>
<path opacity="0.2" d="M51.0625 88C51.0623 87.1443 50.8369 86.3037 50.4089 85.5627C49.981 84.8217 49.3656 84.2063 48.6246 83.7784C47.8835 83.3505 47.0429 83.1252 46.1872 83.125C45.3315 83.1248 44.4908 83.3498 43.7496 83.7774L43.75 73.375H56.75V86.375C56.75 86.806 56.5788 87.2193 56.274 87.524C55.9693 87.8288 55.556 88 55.125 88H51.0625Z" fill="#0866B7"/>
<path d="M56.75 73.375H43.75V65.25H52.3998C52.7246 65.25 53.0419 65.3473 53.3108 65.5294C53.5798 65.7115 53.788 65.9699 53.9086 66.2715L56.75 73.375Z" stroke="#0866B7" stroke-linecap="round" stroke-linejoin="round"/>
<path d="M11.25 78.25H43.75" stroke="#0866B7" stroke-linecap="round" stroke-linejoin="round"/>
<path d="M46.1875 92.875C48.8799 92.875 51.0625 90.6924 51.0625 88C51.0625 85.3076 48.8799 83.125 46.1875 83.125C43.4951 83.125 41.3125 85.3076 41.3125 88C41.3125 90.6924 43.4951 92.875 46.1875 92.875Z" stroke="#0866B7" stroke-miterlimit="10"/>
<path d="M21.8125 92.875C24.5049 92.875 26.6875 90.6924 26.6875 88C26.6875 85.3076 24.5049 83.125 21.8125 83.125C19.1201 83.125 16.9375 85.3076 16.9375 88C16.9375 90.6924 19.1201 92.875 21.8125 92.875Z" stroke="#0866B7" stroke-miterlimit="10"/>
<path d="M41.3125 88H26.6875" stroke="#0866B7" stroke-linecap="round" stroke-linejoin="round"/>
<path d="M16.9375 88H12.875C12.444 88 12.0307 87.8288 11.726 87.524C11.4212 87.2193 11.25 86.806 11.25 86.375V63.625C11.25 63.194 11.4212 62.7807 11.726 62.476C12.0307 62.1712 12.444 62 12.875 62H43.75V83.7781" stroke="#0866B7" stroke-linecap="round" stroke-linejoin="round"/>
<path d="M43.75 83.7781V73.375H56.75V86.375C56.75 86.806 56.5788 87.2193 56.274 87.524C55.9693 87.8288 55.556 88 55.125 88H51.0625" stroke="#0866B7" stroke-linecap="round" stroke-linejoin="round"/>
<path d="M21.181 43H17.239V28.933H13.351V26.233C13.927 26.233 14.458 26.188 14.944 26.098C15.448 25.99 15.916 25.828 16.348 25.612C16.726 25.414 17.086 25.171 17.428 24.883C17.77 24.577 18.04 24.244 18.238 23.884H21.181V43ZM31.9388 23.641C33.0368 23.641 34.0448 23.83 34.9628 24.208C35.8988 24.586 36.6908 25.18 37.3388 25.99C38.0048 26.782 38.5178 27.79 38.8778 29.014C39.2558 30.238 39.4448 31.696 39.4448 33.388C39.4448 35.098 39.2648 36.565 38.9048 37.789C38.5448 39.013 38.0408 40.021 37.3928 40.813C36.7448 41.605 35.9528 42.19 35.0168 42.568C34.0988 42.946 33.0728 43.135 31.9388 43.135C30.8048 43.135 29.7698 42.946 28.8338 42.568C27.9158 42.19 27.1238 41.605 26.4578 40.813C25.8098 40.021 25.3058 39.013 24.9458 37.789C24.6038 36.565 24.4328 35.098 24.4328 33.388C24.4328 31.696 24.6128 30.238 24.9728 29.014C25.3328 27.79 25.8458 26.782 26.5118 25.99C27.1778 25.18 27.9698 24.586 28.8878 24.208C29.8058 23.83 30.8228 23.641 31.9388 23.641ZM31.9388 39.679C33.0908 39.679 33.9908 39.193 34.6388 38.221C35.2868 37.249 35.6108 35.638 35.6108 33.388C35.6108 31.156 35.2868 29.554 34.6388 28.582C33.9908 27.592 33.0908 27.097 31.9388 27.097C30.7688 27.097 29.8598 27.592 29.2118 28.582C28.5818 29.554 28.2668 31.156 28.2668 33.388C28.2668 35.638 28.5818 37.249 29.2118 38.221C29.8598 39.193 30.7688 39.679 31.9388 39.679ZM49.8002 34.846V39.733H46.6412V34.846H41.7542V31.66H46.6412V26.8H49.8002V31.66H54.6872V34.846H49.8002Z" fill="#0866B7"/>
</svg>
