<svg width="59" height="110" viewBox="0 0 59 110" fill="none" xmlns="http://www.w3.org/2000/svg">
<rect width="34" height="110" fill="#F5F5F5"/>
<path opacity="0.2" d="M36.2488 99.8716V64.1216C36.2488 63.6906 36.0776 63.2773 35.7728 62.9725C35.4681 62.6678 35.0548 62.4966 34.6238 62.4966H15.1238C14.6928 62.4966 14.2795 62.6678 13.9747 62.9725C13.67 63.2773 13.4988 63.6906 13.4988 64.1216V99.8716" fill="#0866B7"/>
<path d="M10.25 99.8716H55.75" stroke="#0866B7" stroke-linecap="round" stroke-linejoin="round"/>
<path d="M36.2488 99.8716V64.1216C36.2488 63.6906 36.0776 63.2773 35.7728 62.9725C35.4681 62.6678 35.0548 62.4966 34.6238 62.4966H15.1238C14.6928 62.4966 14.2795 62.6678 13.9747 62.9725C13.67 63.2773 13.4988 63.6906 13.4988 64.1216V99.8716" stroke="#0866B7" stroke-linecap="round" stroke-linejoin="round"/>
<path d="M52.4988 99.8716V77.1216C52.4988 76.6906 52.3276 76.2773 52.0228 75.9725C51.7181 75.6678 51.3048 75.4966 50.8738 75.4966H36.2488" stroke="#0866B7" stroke-linecap="round" stroke-linejoin="round"/>
<path d="M19.9988 70.6216H26.4988" stroke="#0866B7" stroke-linecap="round" stroke-linejoin="round"/>
<path d="M23.2488 83.6216H29.7488" stroke="#0866B7" stroke-linecap="round" stroke-linejoin="round"/>
<path d="M19.9988 91.7466H26.4988" stroke="#0866B7" stroke-linecap="round" stroke-linejoin="round"/>
<path d="M42.7488 91.7466H45.9988" stroke="#0866B7" stroke-linecap="round" stroke-linejoin="round"/>
<path d="M42.7488 83.6216H45.9988" stroke="#0866B7" stroke-linecap="round" stroke-linejoin="round"/>
<path d="M36.058 32.659C35.302 32.659 34.636 32.542 34.06 32.308C33.484 32.074 32.998 31.75 32.602 31.336C32.206 30.922 31.909 30.436 31.711 29.878C31.513 29.32 31.414 28.717 31.414 28.069C31.414 26.701 31.81 25.594 32.602 24.748C33.394 23.902 34.546 23.479 36.058 23.479C37.552 23.479 38.686 23.911 39.46 24.775C40.252 25.621 40.648 26.719 40.648 28.069C40.648 28.717 40.549 29.32 40.351 29.878C40.153 30.436 39.856 30.922 39.46 31.336C39.082 31.75 38.605 32.074 38.029 32.308C37.453 32.542 36.796 32.659 36.058 32.659ZM18.076 23.884L25.609 36.52V23.884H29.47V43H25.663L18.13 30.418V43H14.269V23.884H18.076ZM36.058 26.26C35.428 26.26 34.978 26.44 34.708 26.8C34.456 27.142 34.33 27.565 34.33 28.069C34.33 28.591 34.456 29.023 34.708 29.365C34.978 29.707 35.428 29.878 36.058 29.878C36.67 29.878 37.102 29.707 37.354 29.365C37.606 29.023 37.732 28.591 37.732 28.069C37.732 27.565 37.606 27.142 37.354 26.8C37.102 26.44 36.67 26.26 36.058 26.26ZM31.873 33.658H40.135V36.331H31.873V33.658ZM49.5658 43H45.6238V28.933H41.7358V26.233C42.3118 26.233 42.8428 26.188 43.3288 26.098C43.8328 25.99 44.3008 25.828 44.7328 25.612C45.1108 25.414 45.4708 25.171 45.8128 24.883C46.1548 24.577 46.4248 24.244 46.6228 23.884H49.5658V43Z" fill="#0866B7"/>
</svg>
