<svg width="18" height="18" viewBox="0 0 18 18" fill="none" xmlns="http://www.w3.org/2000/svg">
<path d="M9 11.8125C10.5533 11.8125 11.8125 10.5533 11.8125 9C11.8125 7.4467 10.5533 6.1875 9 6.1875C7.4467 6.1875 6.1875 7.4467 6.1875 9C6.1875 10.5533 7.4467 11.8125 9 11.8125Z" stroke="black" stroke-miterlimit="10"/>
<path d="M12.0938 2.53125H5.90625C4.04229 2.53125 2.53125 4.04229 2.53125 5.90625V12.0938C2.53125 13.9577 4.04229 15.4688 5.90625 15.4688H12.0938C13.9577 15.4688 15.4688 13.9577 15.4688 12.0938V5.90625C15.4688 4.04229 13.9577 2.53125 12.0938 2.53125Z" stroke="black" stroke-linecap="round" stroke-linejoin="round"/>
<path d="M12.5 6C12.7761 6 13 5.77614 13 5.5C13 5.22386 12.7761 5 12.5 5C12.2239 5 12 5.22386 12 5.5C12 5.77614 12.2239 6 12.5 6Z" fill="black"/>
</svg>
