<svg width="211" height="52" viewBox="0 0 211 52" fill="none" xmlns="http://www.w3.org/2000/svg">
<g clip-path="url(#clip0_4_326)">
<path d="M71.6297 15.3063V13.1449H66.6061V16.9358H69.8144C73.9515 16.9358 75.64 19.0381 75.64 21.9171C75.64 24.7962 73.8248 26.9407 69.73 26.9407H61.2026V24.3234H63.5329V13.1449H61.2026V10.4685H74.6691V15.3063H71.6212H71.6297ZM66.6061 19.5447V24.3234H69.8144C71.6465 24.3234 72.4739 23.2342 72.4739 21.934C72.4739 20.6338 71.6297 19.5447 69.8144 19.5447H66.6061Z" fill="black"/>
<path d="M77.5227 26.9414V24.265H79.7094V13.1456H77.5227V10.4692H86.2949C89.7312 10.4692 91.7575 12.943 91.7575 15.9065C91.7575 19.3005 89.0811 21.3015 86.2949 21.3015H82.7573V24.265H85.5182V26.9414H77.5311H77.5227ZM82.7573 13.1625V18.8446H85.5773C87.4685 18.8446 88.5829 17.7977 88.5829 16.0838C88.5829 14.3699 87.4516 13.1625 85.5773 13.1625H82.7573Z" fill="black"/>
<path d="M106.87 13.1455L102.092 23.1926C100.547 26.4263 98.9593 27.2284 96.0128 27.2284V24.611C97.4143 24.611 98.5034 24.2396 99.3477 23.1673L94.0118 13.1371H92.2388V10.4607H99.0353V13.1371H97.4058L100.766 20.0941H100.867L103.974 13.1371H102.345V10.4607H108.483V13.1371H106.853L106.87 13.1455Z" fill="black"/>
<path d="M117.458 10.4692H122.321V16.1767H119.391V13.1541L117.374 13.1372C113.954 13.1372 111.979 15.7545 111.979 18.718C111.979 22.4075 114.537 24.5436 117.931 24.5436C119.189 24.5436 120.751 24.3579 122.135 23.8006L122.338 26.4179C121.105 27.0596 119.29 27.2791 117.542 27.2791C112.519 27.2791 108.745 23.8175 108.745 18.7095C108.745 14.1588 112.308 10.4692 117.458 10.4692Z" fill="black"/>
<path d="M133.652 26.9414V24.265H136.142V19.6974C134.724 20.8287 132.622 21.5295 130.393 21.5295C128.164 21.5295 125.783 20.5417 125.783 17.2658V13.1456H123.621V10.4692H131.076V13.1456H128.831V16.4215C128.831 18.1945 130.106 18.8277 131.938 18.8277C133.314 18.8277 134.817 18.3296 136.134 17.5697V13.1456H133.888V10.4692H141.385V13.1456H139.182V24.265H141.385V26.9414H133.643H133.652Z" fill="black"/>
<path d="M142.652 26.9414V24.265H144.07L148.638 13.1456H145.362V10.4692H152.918L158.296 24.265H159.799V26.9414H152.53V24.265H155.105L154.092 21.4028H148.021L146.949 24.265H150.081V26.9414H142.643H142.652ZM148.891 19.1148H153.298L151.196 13.1456H151.137L148.891 19.1148Z" fill="black"/>
<path d="M162.509 26.9413V24.2649H165.743V13.1455H162.366V16.0246H159.318V10.4607H175.216V16.0246H172.168V13.1455H168.791V24.2649H172.109V26.9413H162.509Z" fill="black"/>
<path d="M176.761 26.9414V24.265H178.965V13.1456H176.761V10.4692H184.047V13.1456H182.012V17.4684H184.132L188.598 10.4692H192.591V13.1456H190.219L186.513 18.3803L190.388 24.2734H192.575V26.9498H189.197V26.9245H188.395L184.157 19.9H182.012V24.265H184.03V26.9414H176.761Z" fill="black"/>
<path d="M193.36 26.9414V24.265H194.778L199.354 13.1456H196.078V10.4692H203.635L209.013 24.265H210.516V26.9414H203.246V24.265H205.822L204.808 21.4028H198.729L197.657 24.265H200.79V26.9414H193.351H193.36ZM199.599 19.1148H204.006L201.904 13.1456H201.845L199.599 19.1148Z" fill="black"/>
<path d="M61.0338 41.6152V40.0786H62.4607V34.5063H61.0338V32.9866H72.1025V34.5063H70.6588V40.0786H72.1025V41.6152H67.4167V40.0786H68.7169V34.5063H64.4026V40.0786H65.7197V41.6152H61.0254H61.0338Z" fill="black"/>
<path d="M72.9806 44.8488V43.3122H74.3821V34.5231H72.9722V32.9865H76.324V34.5991C77.3372 33.2989 78.3081 32.7163 79.6168 32.7163C81.9808 32.7163 82.9602 34.4387 82.9602 36.8027C82.9602 39.4707 81.9639 41.7249 77.9451 41.7249C77.5145 41.7249 76.8897 41.6743 76.3325 41.632V43.3122H78.1477V44.8488H72.9891H72.9806ZM76.3156 36.2623V39.9772C76.9572 40.087 77.7171 40.163 78.1983 40.163C80.174 40.163 80.993 39.1076 80.993 37.0138C80.993 34.9199 80.0136 34.4049 79.0848 34.4049C78.1561 34.4049 76.991 35.3167 76.324 36.2708L76.3156 36.2623Z" fill="black"/>
<path d="M86.2191 38.0607C86.4639 39.7071 87.5699 40.2221 89.0643 40.2221C89.9762 40.2221 91.0231 40.0785 91.9687 39.8337L91.8336 41.4632C91.4452 41.5983 90.373 41.8769 88.9461 41.8769C85.6196 41.8769 84.2434 40.2812 84.2434 37.5119C84.2434 34.7426 85.4507 32.7163 88.6844 32.7163C90.9218 32.7163 92.3993 33.6957 92.3993 36.1779C92.3993 36.676 92.3402 37.4528 92.2304 38.0607H86.2359H86.2191ZM86.2191 36.6001H90.3983C90.4405 36.4734 90.4574 36.2877 90.4574 36.1188C90.4574 34.7342 89.5118 34.2698 88.5662 34.2698C87.3251 34.2698 86.4217 35.0043 86.2191 36.6001Z" fill="black"/>
<path d="M93.5728 41.6152V40.0786H94.9828V34.5063H93.5728V32.9866H97.6592L100.285 39.4285H100.327L103.012 32.9866H106.955V34.5063H105.57V40.0786H106.938V41.6152H102.556V40.0786H103.738V35.2155H103.687L101.062 41.6152H99.4744L96.8655 35.2831H96.8149V40.0786H98.056V41.6152H93.5559H93.5728Z" fill="black"/>
<path d="M114.689 41.6152V40.0786H116.023V35.5279L111.345 41.6152H108.103V40.0786H109.598V34.5063H108.103V32.9866H112.781V34.5063H111.523V39.0739L116.2 32.9866H119.349V34.5063H117.956V40.0786H119.341V41.6152H114.697H114.689Z" fill="black"/>
<path d="M127.606 39.6649C126.796 40.5768 125.698 41.2775 124.39 41.2775C122.498 41.2775 121.452 40.5599 121.452 38.4069V34.5232H120.27V32.9866H123.393V38.0186C123.393 39.1837 123.908 39.5552 124.896 39.5552C125.884 39.5552 126.872 38.8375 127.598 38.0354V34.5232H126.18V32.9866H129.531V41.1256C129.531 43.5656 128.088 45.0093 125.09 45.0093C124.162 45.0093 122.853 44.8995 121.874 44.7138L121.654 42.9408C122.397 43.1096 123.951 43.3292 124.913 43.3292C126.652 43.3292 127.581 42.7888 127.581 40.8469V39.6649H127.606Z" fill="black"/>
<path d="M131.271 41.6152V40.0786H132.681V34.5063H131.271V32.9866H135.357L137.983 39.4285H138.025L140.71 32.9866H144.653V34.5063H143.268V40.0786H144.636V41.6152H140.254V40.0786H141.436V35.2155H141.385L138.759 41.6152H137.172L134.563 35.2831H134.513V40.0786H135.754V41.6152H131.254H131.271Z" fill="black"/>
<path d="M43.3123 18.1523C41.5562 18.5745 39.8592 19.1317 38.2212 19.8156C38.2043 19.8156 38.1875 19.824 38.1706 19.8325C37.3769 20.1702 36.5917 20.5333 35.8319 20.9301C35.7981 20.947 35.7559 20.9638 35.7221 20.9807C34.9454 21.386 34.1855 21.8166 33.4341 22.2725L36.4735 26.8232C37.0561 26.4686 37.6471 26.1394 38.255 25.8354C38.3225 25.8016 38.3901 25.7679 38.4661 25.7341C39.0571 25.4386 39.6481 25.16 40.256 24.9067C40.3151 24.8814 40.3657 24.8645 40.4248 24.8391C41.7082 24.3157 43.0253 23.8682 44.3846 23.5305L43.3123 18.1523Z" fill="#91C83E"/>
<path d="M22.2726 33.4424C21.8167 34.1854 21.3861 34.9452 20.9809 35.722C20.964 35.7557 20.9471 35.798 20.9302 35.8317C20.5418 36.6 20.1703 37.3768 19.8326 38.1704C19.8326 38.1873 19.8157 38.2042 19.8073 38.2295C19.1234 39.8674 18.5662 41.5645 18.144 43.3122L23.5222 44.3844C23.5222 44.3844 23.5222 44.376 23.5222 44.3675C23.8599 43.0082 24.2989 41.6996 24.8224 40.4247C24.8477 40.3656 24.8646 40.3065 24.8899 40.2474C25.1432 39.6395 25.4218 39.0485 25.7174 38.4659C25.7511 38.3984 25.7849 38.3224 25.8271 38.2549C26.1395 37.647 26.4688 37.056 26.8149 36.4818L22.2642 33.4424H22.2726Z" fill="#91C83E"/>
<path d="M47.6605 17.4262C47.0611 17.4938 46.4616 17.5698 45.8706 17.6626L46.9344 23.0323C47.9138 22.8804 48.9101 22.779 49.9232 22.7284V17.2405C49.1633 17.2658 48.4119 17.3418 47.6605 17.4178V17.4262Z" fill="#91C83E"/>
<path d="M17.6627 45.8704C17.5699 46.4614 17.4939 47.0608 17.4263 47.6603C17.3503 48.4117 17.2744 49.1631 17.249 49.923H22.7369C22.7791 48.9098 22.8889 47.922 23.0324 46.9426L17.6712 45.8788L17.6627 45.8704Z" fill="#91C83E"/>
<path d="M31.2812 23.7163C28.3768 25.827 25.827 28.3768 23.7163 31.2812L28.2755 34.3291C29.981 32.0157 32.0157 29.981 34.3291 28.2755L31.2812 23.7163Z" fill="#91C83E"/>
<path d="M25.0249 9.68412L28.0981 14.2771C32.1507 11.7273 36.6339 9.79388 41.438 8.68786L40.3657 3.30127C34.844 4.55082 29.677 6.73754 25.0249 9.68412Z" fill="#019385"/>
<path d="M11.1279 22.872L15.704 25.9284C18.5239 21.9771 21.9771 18.5239 25.9284 15.704L22.872 11.1279C18.3297 14.3531 14.3531 18.3213 11.1279 22.872Z" fill="#019385"/>
<path d="M42.907 2.79472L43.9877 8.22352C45.9296 7.89425 47.8968 7.65784 49.9146 7.5903V2.11084C47.5337 2.16994 45.195 2.40634 42.907 2.80316V2.79472Z" fill="#019385"/>
<path d="M3.30141 40.3657L8.688 41.438C9.79402 36.6339 11.7275 32.1507 14.2688 28.0981L9.67582 25.0249C6.73768 29.6685 4.54252 34.844 3.29297 40.3657H3.30141Z" fill="#019385"/>
<path d="M2.11084 49.9232H7.60719C7.66629 47.9053 7.91113 45.9381 8.24041 43.9962L2.8116 42.9155C2.42323 45.2036 2.18683 47.5423 2.11928 49.9232H2.11084Z" fill="#019385"/>
<path d="M46.2251 9.97948C45.499 10.0724 44.7898 10.199 44.0806 10.3256C43.65 10.4016 43.2194 10.4692 42.7888 10.5536C41.8432 10.7562 40.9145 10.9842 40.0026 11.2459C39.8675 11.2881 39.724 11.3219 39.5889 11.3641C38.5589 11.6681 37.5457 12.0058 36.541 12.3857L38.6349 17.443C39.4454 17.1391 40.2728 16.8689 41.1171 16.6241C41.2859 16.5734 41.4548 16.5312 41.6237 16.4805C42.3498 16.2779 43.0843 16.0922 43.8357 15.9317C44.2494 15.8473 44.6631 15.7798 45.0853 15.7038C45.6425 15.6109 46.1997 15.5012 46.7738 15.4252C47.8123 15.2901 48.8677 15.1972 49.9315 15.155V9.67554C48.6819 9.71775 47.4577 9.82751 46.2335 9.97104L46.2251 9.97948Z" fill="#16B262"/>
<path d="M22.8043 20.9721L26.6796 24.8474C29.4827 22.2385 32.691 20.0518 36.2202 18.4307L34.1179 13.365C29.9217 15.2646 26.1055 17.8566 22.7959 20.9721H22.8043Z" fill="#16B262"/>
<path d="M13.3652 34.1262L18.431 36.2285C20.052 32.6993 22.2303 29.491 24.8476 26.6795L20.9723 22.8042C17.8569 26.1223 15.2649 29.9216 13.3652 34.1177V34.1262Z" fill="#16B262"/>
<path d="M12.3858 36.5409C12.0059 37.5372 11.6682 38.5503 11.3642 39.5804C11.322 39.7239 11.2882 39.8674 11.246 40.0025C10.9843 40.9144 10.7563 41.8431 10.5537 42.7887C10.4693 43.2193 10.4017 43.6499 10.3257 44.0804C10.1991 44.7897 10.0725 45.4989 9.97958 46.2165C9.83605 47.4323 9.7263 48.665 9.68408 49.9145H15.1635C15.2058 48.8507 15.2986 47.7953 15.4337 46.7569C15.5013 46.1827 15.611 45.6339 15.7123 45.0683C15.7883 44.6546 15.8474 44.2324 15.9403 43.8272C16.0923 43.0757 16.2865 42.3496 16.4891 41.6151C16.5397 41.4463 16.582 41.2774 16.6326 41.1085C16.8775 40.2642 17.1476 39.4453 17.4516 38.6263L12.3943 36.5325L12.3858 36.5409Z" fill="#16B262"/>
<path d="M31.2051 33.9659C31.0363 34.1601 30.8674 34.3627 30.6986 34.5653C30.3693 34.9706 30.0569 35.3843 29.753 35.8149C29.6263 35.9837 29.4997 36.1526 29.3815 36.3299C28.9678 36.9378 28.5625 37.5626 28.1995 38.2127C28.191 38.238 28.1741 38.2549 28.1657 38.2802C27.8617 38.8121 27.6 39.3609 27.3298 39.9181L32.3534 41.9951C32.6489 41.3956 32.9613 40.8046 33.3074 40.2305C33.5945 39.7662 33.8984 39.3102 34.2193 38.8712C34.6161 38.3309 35.0804 37.8496 35.5195 37.3515L31.6526 33.4846C31.5091 33.645 31.3571 33.8055 31.2136 33.9659H31.2051Z" fill="#FEE600"/>
<path d="M38.2719 28.157C38.2719 28.157 38.2296 28.1739 38.2128 28.1908C37.5627 28.5539 36.9379 28.9591 36.33 29.3728C36.1527 29.491 35.9838 29.6261 35.815 29.7528C35.3928 30.0567 34.9707 30.3691 34.5654 30.6984C34.3628 30.8588 34.1686 31.0276 33.9744 31.1965C33.8056 31.34 33.6536 31.492 33.4932 31.644L37.36 35.5108C37.8582 35.0718 38.3394 34.6074 38.8798 34.2106C39.3188 33.8898 39.7747 33.5858 40.2391 33.2988C40.8132 32.9442 41.4042 32.6318 42.0036 32.3363L39.9267 27.3127C39.3694 27.5745 38.8207 27.8447 38.2803 28.1486L38.2719 28.157Z" fill="#FEE600"/>
<path d="M26.249 42.5186C26.1984 42.6621 26.1561 42.8056 26.1139 42.9492C25.9282 43.5149 25.7593 44.0974 25.6074 44.68C25.5567 44.8911 25.506 45.1106 25.4554 45.3216C25.3287 45.8704 25.2274 46.4192 25.1346 46.9765C25.1008 47.1875 25.0586 47.3986 25.0332 47.6181C24.9319 48.378 24.8475 49.1378 24.8137 49.9146H30.2594C30.3016 49.2814 30.3692 48.6313 30.4874 47.9221C30.5718 47.3817 30.6731 46.8414 30.7998 46.3095C30.9517 45.6594 31.1544 45.0177 31.3654 44.3845L26.3419 42.2991C26.3166 42.3666 26.2828 42.4342 26.2575 42.5017L26.249 42.5186Z" fill="#FEE600"/>
<path d="M47.6265 25.0248C47.4154 25.0501 47.2044 25.0923 46.9849 25.1261C46.4276 25.219 45.8704 25.3203 45.33 25.4469C45.1105 25.4976 44.8995 25.5483 44.6799 25.5989C44.0974 25.7509 43.5148 25.9197 42.9491 26.1055C42.8056 26.1561 42.6621 26.1899 42.5185 26.2406C42.451 26.2659 42.3835 26.2997 42.3159 26.325L44.4013 31.357C45.0345 31.1375 45.6678 30.9433 46.3263 30.7913C46.8582 30.6647 47.3901 30.5634 47.9389 30.4789C48.6397 30.3692 49.2982 30.2847 49.9314 30.2425V24.8137C49.1547 24.8475 48.3864 24.9319 47.635 25.0332L47.6265 25.0248Z" fill="#FEE600"/>
<path d="M36.8111 2.0769H2.0769V36.8111C6.9738 20.1363 20.1363 6.9738 36.8111 2.0769Z" fill="#3985C6"/>
<path d="M46.7991 32.8093C44.8657 33.2737 43.0251 34.0335 41.3197 35.0804C40.8975 35.3422 40.4923 35.6123 40.0954 35.8994C38.4828 37.073 37.0729 38.4829 35.8993 40.0955C35.6122 40.4924 35.3336 40.9061 35.0803 41.3282C34.0419 43.0252 33.2736 44.8658 32.8092 46.8077C32.691 47.2805 32.5981 47.7702 32.5221 48.2598C32.4293 48.8593 32.387 49.3912 32.3533 49.9315H49.923V32.3618C49.3911 32.404 48.8592 32.4378 48.2597 32.5307C47.7701 32.6067 47.2804 32.6995 46.8076 32.8093H46.7991Z" fill="#F8982D"/>
<path d="M0 0V52H52V1.03004V0H0ZM49.923 22.7284C48.9099 22.7706 47.9221 22.8803 46.9342 23.0323L45.8704 17.6626C46.4614 17.5697 47.0609 17.4937 47.6603 17.4262C48.4118 17.3418 49.1632 17.2742 49.923 17.2489V22.7284ZM44.3929 23.5389C43.0252 23.8766 41.7081 24.3156 40.4332 24.8475C40.3741 24.8729 40.3234 24.8898 40.2643 24.9151C39.6564 25.1684 39.057 25.447 38.4744 25.7425C38.4069 25.7763 38.3393 25.81 38.2634 25.8438C37.6555 26.1562 37.0645 26.4855 36.4819 26.8316L33.4424 22.2809C34.1854 21.825 34.9453 21.3944 35.7305 20.9891C35.7642 20.9722 35.8065 20.9553 35.8402 20.9385C36.6085 20.5501 37.3853 20.1786 38.1789 19.8409C38.1958 19.8409 38.2127 19.8324 38.2296 19.824C39.8675 19.1401 41.5645 18.5744 43.3207 18.1607L44.3929 23.5389ZM42.0036 32.3617C41.4041 32.6572 40.8131 32.9696 40.239 33.3242C39.7746 33.6113 39.3187 33.9152 38.8797 34.2361C38.3393 34.6329 37.8581 35.0973 37.36 35.5363L33.4931 31.6694L33.4762 31.6525C33.6366 31.509 33.8139 31.3739 33.9828 31.2304C34.177 31.0615 34.3796 30.8927 34.5738 30.7323C34.9791 30.403 35.3928 30.0906 35.8233 29.7867C36.0006 29.66 36.1695 29.5334 36.3384 29.4067C36.9463 28.993 37.571 28.5878 38.2211 28.2247C38.238 28.2163 38.2634 28.2078 38.2802 28.1909C38.8121 27.887 39.3609 27.5999 39.9182 27.3382V27.3551L42.0036 32.3786V32.3617ZM27.3129 39.9182C27.5746 39.3609 27.8617 38.8206 28.1656 38.2887C28.1741 38.2634 28.1909 38.2465 28.1994 38.2211C28.5624 37.571 28.9592 36.9463 29.3814 36.3384C29.4996 36.1611 29.6347 35.9922 29.7529 35.8233C30.0568 35.4012 30.3692 34.9791 30.6985 34.5738C30.8589 34.3712 31.0278 34.177 31.2051 33.9743C31.3486 33.8055 31.4837 33.6366 31.6272 33.4678L31.6441 33.4847L35.511 37.3515C35.0719 37.8497 34.6076 38.3309 34.2107 38.8712C33.8899 39.3103 33.586 39.7662 33.2989 40.2306C32.9443 40.8047 32.6319 41.3957 32.3449 41.9951L27.3213 39.9182H27.3044H27.3129ZM23.7162 31.281C25.8269 28.3767 28.3767 25.8269 31.281 23.7162L34.3289 28.2754C32.0156 29.9808 29.9808 32.0156 28.2754 34.3289L23.7162 31.281ZM23.0323 46.9342C22.8803 47.9136 22.779 48.9099 22.7368 49.9146H17.2573C17.2827 49.1547 17.3502 48.4033 17.4346 47.6519C17.5022 47.0524 17.5782 46.453 17.6711 45.862L23.0323 46.9258V46.9342ZM18.4309 36.2286L13.3652 34.1263C15.2648 29.9302 17.8568 26.1224 20.9722 22.8128L24.8475 26.6881C22.2302 29.4996 20.052 32.7079 18.4309 36.237V36.2286ZM46.7654 15.4337C46.1997 15.5097 45.6425 15.611 45.0768 15.7123C44.6631 15.7883 44.2409 15.8558 43.8272 15.9402C43.0843 16.1007 42.3497 16.278 41.6152 16.489C41.4463 16.5397 41.2775 16.5819 41.1086 16.6326C40.2728 16.8774 39.4454 17.1476 38.6264 17.4515L36.5326 12.3942C37.5288 12.0143 38.5504 11.6766 39.5805 11.3726C39.7155 11.3304 39.8591 11.2966 39.9942 11.2544C40.9144 10.9927 41.8432 10.7647 42.7803 10.5621C43.2025 10.4692 43.6415 10.4101 44.0721 10.3341C44.7813 10.2075 45.4905 10.0724 46.2166 9.98798C47.4324 9.83601 48.665 9.7347 49.9146 9.69248V15.1719C48.8508 15.2142 47.7954 15.307 46.7569 15.4421L46.7654 15.4337ZM26.6797 24.8391L22.8044 20.9638C26.1224 17.8484 29.9302 15.2564 34.1263 13.3567L36.2286 18.4225C32.6995 20.0435 29.4911 22.2218 26.6881 24.8391H26.6797ZM28.0981 14.277L25.0248 9.68404C29.6685 6.7459 34.844 4.55074 40.3656 3.30119L41.4379 8.68777C36.6339 9.7938 32.1507 11.7272 28.0981 14.277ZM49.923 7.59864C47.9052 7.65774 45.938 7.90258 43.9961 8.23186L42.9154 2.80305C45.2034 2.41468 47.5421 2.17828 49.923 2.11073V7.59864ZM22.8719 11.1278L25.9282 15.7038C21.9769 18.5238 18.5238 21.9769 15.7038 25.9282L11.1278 22.8719C14.353 18.3296 18.3212 14.353 22.8719 11.1278ZM2.07696 2.07696H36.8112C20.1364 6.97386 6.97386 20.1364 2.07696 36.8112V2.07696ZM7.59864 49.923H2.11073C2.16983 47.5421 2.40623 45.2034 2.80305 42.9154L8.23186 43.9961C7.90258 45.938 7.66618 47.9052 7.59864 49.923ZM3.30119 40.3656C4.55074 34.844 6.73746 29.6769 9.68404 25.0248L14.277 28.0981C11.7272 32.1507 9.7938 36.6339 8.69622 41.4379L3.30963 40.3656H3.30119ZM15.7038 45.0768C15.6025 45.634 15.5012 46.1997 15.4252 46.7654C15.2901 47.8039 15.1973 48.8592 15.1551 49.923H9.6756C9.71781 48.6735 9.81913 47.4408 9.9711 46.225C10.064 45.5074 10.1906 44.7982 10.3173 44.089C10.3932 43.6584 10.4608 43.2194 10.5452 42.7972C10.7478 41.86 10.9758 40.9313 11.2375 40.011C11.2798 39.8675 11.3135 39.724 11.3557 39.5889C11.6597 38.5589 11.9974 37.5457 12.3773 36.5494L17.4346 38.6433C17.1307 39.4538 16.8605 40.2897 16.6157 41.1255C16.565 41.2944 16.5228 41.4632 16.4722 41.6321C16.2695 42.3582 16.0838 43.1012 15.9234 43.8441C15.8389 44.2578 15.7714 44.6715 15.6954 45.0852L15.7038 45.0768ZM23.5304 44.376C23.5304 44.376 23.5304 44.3845 23.5304 44.3929L18.1523 43.3207C18.5744 41.5645 19.1317 39.8675 19.8156 38.238C19.8156 38.2211 19.8324 38.2043 19.8409 38.1789C20.1786 37.3853 20.5416 36.6001 20.9385 35.8402C20.9553 35.8065 20.9722 35.7642 20.9891 35.7305C21.3944 34.9537 21.825 34.1939 22.2809 33.4509L26.8316 36.4903C26.477 37.0729 26.1562 37.6639 25.8438 38.2634C25.81 38.3309 25.7763 38.4069 25.734 38.4744C25.4385 39.057 25.1599 39.648 24.9066 40.2559C24.8813 40.315 24.8644 40.3741 24.8391 40.4332C24.3156 41.6996 23.8766 43.0167 23.5389 44.376H23.5304ZM30.7829 46.3179C30.6563 46.8498 30.555 47.3817 30.4705 47.9305C30.3608 48.6397 30.2932 49.2898 30.2426 49.923H24.7969C24.8307 49.1463 24.9151 48.3864 25.0164 47.6266C25.0417 47.4155 25.0839 47.196 25.1177 46.9849C25.2106 46.4277 25.3119 45.8789 25.4385 45.3301C25.4892 45.1106 25.5399 44.8995 25.5905 44.6884C25.7425 44.1059 25.9113 43.5233 26.0971 42.9576C26.1478 42.8141 26.1815 42.6706 26.2322 42.527C26.2575 42.4595 26.2744 42.3835 26.2997 42.316H26.3166L31.3402 44.4014C31.1206 45.0346 30.9264 45.6678 30.7745 46.3264L30.7829 46.3179ZM49.9146 32.3533V49.923H32.3195C32.3617 49.3911 32.4208 48.8423 32.5137 48.2513C32.5897 47.7617 32.6826 47.2804 32.8008 46.7992C33.2651 44.8657 34.025 43.0167 35.0719 41.3197C35.3337 40.8975 35.6038 40.4923 35.8909 40.087C37.0645 38.4744 38.4744 37.0645 40.087 35.8909C40.4838 35.5954 40.8975 35.3252 41.3113 35.0719C43.0167 34.025 44.8573 33.2567 46.7907 32.8008C47.2635 32.691 47.7532 32.5981 48.2429 32.5222C48.8339 32.4293 49.3827 32.3702 49.9062 32.328V32.3533H49.9146ZM49.9146 30.2341C49.2814 30.2763 48.6228 30.3608 47.9221 30.4705C47.3817 30.555 46.8414 30.6563 46.3095 30.7829C45.6594 30.9349 45.0177 31.1375 44.3845 31.3486L42.2991 26.3166V26.2997C42.3582 26.2744 42.4342 26.2575 42.5017 26.2322C42.6452 26.1815 42.7888 26.1393 42.9323 26.0971C43.498 25.9113 44.0805 25.7425 44.6631 25.5905C44.8742 25.5399 45.0937 25.4892 45.3132 25.4385C45.862 25.3119 46.4108 25.2106 46.968 25.1177C47.1791 25.0839 47.3902 25.0417 47.6097 25.0164C48.3695 24.9151 49.1294 24.8307 49.9062 24.7969V30.2257L49.9146 30.2341Z" fill="#2B3990"/>
</g>
<defs>
<clipPath id="clip0_4_326">
<rect width="210.516" height="52" fill="white"/>
</clipPath>
</defs>
</svg>
