<svg width="68" height="110" viewBox="0 0 68 110" fill="none" xmlns="http://www.w3.org/2000/svg">
<rect width="34" height="110" fill="#F5F5F5"/>
<path d="M3.62 34.792L4.835 23.884H16.445V27.286H7.994L7.454 31.228C8.066 30.922 8.642 30.706 9.182 30.58C9.74 30.436 10.379 30.373 11.099 30.391C12.035 30.409 12.881 30.562 13.637 30.85C14.411 31.138 15.068 31.552 15.608 32.092C16.148 32.632 16.562 33.28 16.85 34.036C17.138 34.774 17.282 35.611 17.282 36.547C17.282 37.591 17.102 38.527 16.742 39.355C16.382 40.183 15.887 40.885 15.257 41.461C14.591 42.037 13.835 42.469 12.989 42.757C12.161 43.045 11.207 43.189 10.127 43.189C8.165 43.189 6.599 42.739 5.429 41.839C4.259 40.939 3.566 39.472 3.35 37.438H7.211C7.373 38.212 7.715 38.77 8.237 39.112C8.777 39.454 9.38 39.643 10.046 39.679C11 39.715 11.783 39.49 12.395 39.004C13.007 38.518 13.322 37.753 13.34 36.709C13.358 35.683 13.061 34.909 12.449 34.387C11.837 33.865 11.063 33.622 10.127 33.658C9.569 33.676 9.047 33.784 8.561 33.982C8.093 34.18 7.679 34.45 7.319 34.792H3.62ZM26.6078 23.641C27.7058 23.641 28.7138 23.83 29.6318 24.208C30.5678 24.586 31.3598 25.18 32.0078 25.99C32.6738 26.782 33.1868 27.79 33.5468 29.014C33.9248 30.238 34.1138 31.696 34.1138 33.388C34.1138 35.098 33.9338 36.565 33.5738 37.789C33.2138 39.013 32.7098 40.021 32.0618 40.813C31.4138 41.605 30.6218 42.19 29.6858 42.568C28.7678 42.946 27.7418 43.135 26.6078 43.135C25.4738 43.135 24.4388 42.946 23.5028 42.568C22.5848 42.19 21.7928 41.605 21.1268 40.813C20.4788 40.021 19.9748 39.013 19.6148 37.789C19.2728 36.565 19.1018 35.098 19.1018 33.388C19.1018 31.696 19.2818 30.238 19.6418 29.014C20.0018 27.79 20.5148 26.782 21.1808 25.99C21.8468 25.18 22.6388 24.586 23.5568 24.208C24.4748 23.83 25.4918 23.641 26.6078 23.641ZM26.6078 39.679C27.7598 39.679 28.6598 39.193 29.3078 38.221C29.9558 37.249 30.2798 35.638 30.2798 33.388C30.2798 31.156 29.9558 29.554 29.3078 28.582C28.6598 27.592 27.7598 27.097 26.6078 27.097C25.4378 27.097 24.5288 27.592 23.8808 28.582C23.2508 29.554 22.9358 31.156 22.9358 33.388C22.9358 35.638 23.2508 37.249 23.8808 38.221C24.5288 39.193 25.4378 39.679 26.6078 39.679ZM43.4701 23.641C44.5681 23.641 45.5761 23.83 46.4941 24.208C47.4301 24.586 48.2221 25.18 48.8701 25.99C49.5361 26.782 50.0491 27.79 50.4091 29.014C50.7871 30.238 50.9761 31.696 50.9761 33.388C50.9761 35.098 50.7961 36.565 50.4361 37.789C50.0761 39.013 49.5721 40.021 48.9241 40.813C48.2761 41.605 47.4841 42.19 46.5481 42.568C45.6301 42.946 44.6041 43.135 43.4701 43.135C42.3361 43.135 41.3011 42.946 40.3651 42.568C39.4471 42.19 38.6551 41.605 37.9891 40.813C37.3411 40.021 36.8371 39.013 36.4771 37.789C36.1351 36.565 35.9641 35.098 35.9641 33.388C35.9641 31.696 36.1441 30.238 36.5041 29.014C36.8641 27.79 37.3771 26.782 38.0431 25.99C38.7091 25.18 39.5011 24.586 40.4191 24.208C41.3371 23.83 42.3541 23.641 43.4701 23.641ZM43.4701 39.679C44.6221 39.679 45.5221 39.193 46.1701 38.221C46.8181 37.249 47.1421 35.638 47.1421 33.388C47.1421 31.156 46.8181 29.554 46.1701 28.582C45.5221 27.592 44.6221 27.097 43.4701 27.097C42.3001 27.097 41.3911 27.592 40.7431 28.582C40.1131 29.554 39.7981 31.156 39.7981 33.388C39.7981 35.638 40.1131 37.249 40.7431 38.221C41.3911 39.193 42.3001 39.679 43.4701 39.679ZM61.3314 34.846V39.733H58.1724V34.846H53.2854V31.66H58.1724V26.8H61.3314V31.66H66.2184V34.846H61.3314Z" fill="#0866B7"/>
<path d="M52.875 67.75H17.125C16.2275 67.75 15.5 68.4775 15.5 69.375V74.25H54.5V69.375C54.5 68.4775 53.7725 67.75 52.875 67.75Z" fill="#0866B7" fill-opacity="0.3"/>
<path d="M54.5 69.375C54.5 68.4775 53.7725 67.75 52.875 67.75H17.125C16.2275 67.75 15.5 68.4775 15.5 69.375M54.5 69.375V98.625C54.5 99.5225 53.7725 100.25 52.875 100.25H17.125C16.2275 100.25 15.5 99.5225 15.5 98.625V69.375M54.5 69.375V74.25H15.5V69.375" stroke="#0866B7" stroke-linecap="round" stroke-linejoin="round"/>
<path d="M43.125 80.75C43.125 82.9049 42.269 84.9715 40.7452 86.4952C39.2215 88.019 37.1549 88.875 35 88.875C32.8451 88.875 30.7785 88.019 29.2548 86.4952C27.731 84.9715 26.875 82.9049 26.875 80.75" stroke="#0866B7" stroke-linecap="round" stroke-linejoin="round"/>
</svg>
