<svg width="18" height="18" viewBox="0 0 18 18" fill="none" xmlns="http://www.w3.org/2000/svg">
<path d="M2.62909 3.3444L6.74975 15.2485C6.78856 15.3606 6.86181 15.4576 6.95903 15.5256C7.05625 15.5935 7.17247 15.629 7.29108 15.627C7.40969 15.6249 7.5246 15.5854 7.61941 15.5141C7.71421 15.4428 7.78405 15.3433 7.81893 15.23L9.47519 9.84715C9.50217 9.75946 9.55019 9.6797 9.61507 9.61482C9.67994 9.54995 9.7597 9.50193 9.84739 9.47495L15.2302 7.81869C15.3436 7.78381 15.443 7.71397 15.5143 7.61917C15.5856 7.52436 15.6251 7.40945 15.6272 7.29084C15.6293 7.17223 15.5938 7.05601 15.5258 6.95879C15.4578 6.86156 15.3609 6.78832 15.2488 6.74951L3.34465 2.62885C3.24489 2.59432 3.13743 2.58855 3.03456 2.61221C2.93168 2.63588 2.83754 2.68801 2.7629 2.76265C2.68825 2.8373 2.63612 2.93144 2.61246 3.03431C2.5888 3.13719 2.59456 3.24465 2.62909 3.3444V3.3444Z" stroke="black" stroke-linecap="round" stroke-linejoin="round"/>
</svg>
