<svg width="67" height="110" viewBox="0 0 67 110" fill="none" xmlns="http://www.w3.org/2000/svg">
<rect width="34" height="110" fill="#F5F5F5"/>
<path d="M7.751 35.386C8.183 35.026 8.615 34.639 9.047 34.225C9.497 33.811 9.929 33.379 10.343 32.929C10.757 32.515 11.108 32.065 11.396 31.579C11.702 31.093 11.864 30.553 11.882 29.959C11.918 29.005 11.666 28.294 11.126 27.826C10.586 27.358 9.866 27.133 8.966 27.151C8.156 27.169 7.499 27.358 6.995 27.718C6.509 28.078 6.221 28.6 6.131 29.284H2.486C2.522 28.222 2.774 27.304 3.242 26.53C3.728 25.738 4.367 25.108 5.159 24.64C5.735 24.298 6.365 24.055 7.049 23.911C7.733 23.749 8.453 23.668 9.209 23.668C11.243 23.632 12.845 24.172 14.015 25.288C14.519 25.756 14.924 26.341 15.23 27.043C15.536 27.727 15.689 28.537 15.689 29.473C15.689 30.157 15.617 30.805 15.473 31.417C15.329 32.029 15.086 32.596 14.744 33.118C14.528 33.478 14.294 33.811 14.042 34.117C13.808 34.405 13.565 34.675 13.313 34.927C13.079 35.179 12.818 35.431 12.53 35.683C12.26 35.935 11.954 36.214 11.612 36.52C10.946 37.096 10.307 37.627 9.695 38.113C9.101 38.599 8.534 39.076 7.994 39.544H15.473V43H2.621V39.814L7.751 35.386ZM24.8939 23.641C25.9919 23.641 26.9999 23.83 27.9179 24.208C28.8539 24.586 29.6459 25.18 30.2939 25.99C30.9599 26.782 31.4729 27.79 31.8329 29.014C32.2109 30.238 32.3999 31.696 32.3999 33.388C32.3999 35.098 32.2199 36.565 31.8599 37.789C31.4999 39.013 30.9959 40.021 30.3479 40.813C29.6999 41.605 28.9079 42.19 27.9719 42.568C27.0539 42.946 26.0279 43.135 24.8939 43.135C23.7599 43.135 22.7249 42.946 21.7889 42.568C20.8709 42.19 20.0789 41.605 19.4129 40.813C18.7649 40.021 18.2609 39.013 17.9009 37.789C17.5589 36.565 17.3879 35.098 17.3879 33.388C17.3879 31.696 17.5679 30.238 17.9279 29.014C18.2879 27.79 18.8009 26.782 19.4669 25.99C20.1329 25.18 20.9249 24.586 21.8429 24.208C22.7609 23.83 23.7779 23.641 24.8939 23.641ZM24.8939 39.679C26.0459 39.679 26.9459 39.193 27.5939 38.221C28.2419 37.249 28.5659 35.638 28.5659 33.388C28.5659 31.156 28.2419 29.554 27.5939 28.582C26.9459 27.592 26.0459 27.097 24.8939 27.097C23.7239 27.097 22.8149 27.592 22.1669 28.582C21.5369 29.554 21.2219 31.156 21.2219 33.388C21.2219 35.638 21.5369 37.249 22.1669 38.221C22.8149 39.193 23.7239 39.679 24.8939 39.679ZM41.7562 23.641C42.8542 23.641 43.8622 23.83 44.7802 24.208C45.7162 24.586 46.5082 25.18 47.1562 25.99C47.8222 26.782 48.3352 27.79 48.6952 29.014C49.0732 30.238 49.2622 31.696 49.2622 33.388C49.2622 35.098 49.0822 36.565 48.7222 37.789C48.3622 39.013 47.8582 40.021 47.2102 40.813C46.5622 41.605 45.7702 42.19 44.8342 42.568C43.9162 42.946 42.8902 43.135 41.7562 43.135C40.6222 43.135 39.5872 42.946 38.6512 42.568C37.7332 42.19 36.9412 41.605 36.2752 40.813C35.6272 40.021 35.1232 39.013 34.7632 37.789C34.4212 36.565 34.2502 35.098 34.2502 33.388C34.2502 31.696 34.4302 30.238 34.7902 29.014C35.1502 27.79 35.6632 26.782 36.3292 25.99C36.9952 25.18 37.7872 24.586 38.7052 24.208C39.6232 23.83 40.6402 23.641 41.7562 23.641ZM41.7562 39.679C42.9082 39.679 43.8082 39.193 44.4562 38.221C45.1042 37.249 45.4282 35.638 45.4282 33.388C45.4282 31.156 45.1042 29.554 44.4562 28.582C43.8082 27.592 42.9082 27.097 41.7562 27.097C40.5862 27.097 39.6772 27.592 39.0292 28.582C38.3992 29.554 38.0842 31.156 38.0842 33.388C38.0842 35.638 38.3992 37.249 39.0292 38.221C39.6772 39.193 40.5862 39.679 41.7562 39.679ZM59.6176 34.846V39.733H56.4586V34.846H51.5716V31.66H56.4586V26.8H59.6176V31.66H64.5046V34.846H59.6176Z" fill="#0866B7"/>
<path opacity="0.2" d="M14.5 74.25L34 85.625L53.5 74.25L34 62.875L14.5 74.25Z" fill="#0866B7"/>
<path d="M14.5 93.75L34 105.125L53.5 93.75" stroke="#0866B7" stroke-linecap="round" stroke-linejoin="round"/>
<path d="M14.5 84L34 95.375L53.5 84" stroke="#0866B7" stroke-linecap="round" stroke-linejoin="round"/>
<path d="M14.5 74.25L34 85.625L53.5 74.25L34 62.875L14.5 74.25Z" stroke="#0866B7" stroke-linecap="round" stroke-linejoin="round"/>
</svg>
