<svg width="90" height="90" viewBox="0 0 90 90" fill="none" xmlns="http://www.w3.org/2000/svg">
<path d="M70.3125 78.75C74.9724 78.75 78.75 74.9724 78.75 70.3125C78.75 65.6526 74.9724 61.875 70.3125 61.875C65.6526 61.875 61.875 65.6526 61.875 70.3125C61.875 74.9724 65.6526 78.75 70.3125 78.75Z" stroke="black" stroke-width="3" stroke-linecap="round" stroke-linejoin="round"/>
<path d="M25.3125 19.6875H59.0625C62.0462 19.6875 64.9077 20.8728 67.0174 22.9825C69.1272 25.0923 70.3125 27.9538 70.3125 30.9375C70.3125 33.9212 69.1272 36.7827 67.0174 38.8925C64.9077 41.0022 62.0462 42.1875 59.0625 42.1875H25.3125C21.5829 42.1875 18.006 43.6691 15.3688 46.3063C12.7316 48.9435 11.25 52.5204 11.25 56.25C11.25 59.9796 12.7316 63.5565 15.3688 66.1937C18.006 68.8309 21.5829 70.3125 25.3125 70.3125H61.875" stroke="black" stroke-width="3" stroke-linecap="round" stroke-linejoin="round"/>
</svg>
